REM DIRINDEX 1\2,1\3
REM DIRNAME cjc039,folder01,folder02
TITLE ""
FILE "1221-1240.mp3" MP3
  TRACK 01 AUDIO
    TITLE "0:"
    INDEX 01 00:00:00
  TRACK 02 AUDIO
    TITLE "2:cjc039_1441"
    INDEX 01 00:00:25
  TRACK 03 AUDIO
    TITLE "0:"
    INDEX 01 00:01:46
  TRACK 04 AUDIO
    TITLE "3:cjc039_1442"
    INDEX 01 00:02:28
  TRACK 05 AUDIO
    TITLE "0:"
    INDEX 01 00:06:47
  TRACK 06 AUDIO
    TITLE "2:cjc039_1443"
    INDEX 01 00:08:26
  TRACK 07 AUDIO
    TITLE "0:"
    INDEX 01 00:09:34
  TRACK 08 AUDIO
    TITLE "3:cjc039_1444"
    INDEX 01 00:10:18
  TRACK 09 AUDIO
    TITLE "0:"
    INDEX 01 00:13:53
  TRACK 10 AUDIO
    TITLE "2:cjc039_1445"
    INDEX 01 00:15:32
  TRACK 11 AUDIO
    TITLE "0:"
    INDEX 01 00:16:42
  TRACK 12 AUDIO
    TITLE "3:cjc039_1446"
    INDEX 01 00:17:21
  TRACK 13 AUDIO
    TITLE "0:"
    INDEX 01 00:21:29
  TRACK 14 AUDIO
    TITLE "2:cjc039_1447"
    INDEX 01 00:23:04
  TRACK 15 AUDIO
    TITLE "0:"
    INDEX 01 00:24:45
  TRACK 16 AUDIO
    TITLE "3:cjc039_1448"
    INDEX 01 00:25:19
  TRACK 17 AUDIO
    TITLE "0:"
    INDEX 01 00:30:08
  TRACK 18 AUDIO
    TITLE "2:cjc039_1449"
    INDEX 01 00:31:59
  TRACK 19 AUDIO
    TITLE "0:"
    INDEX 01 00:33:01
  TRACK 20 AUDIO
    TITLE "3:cjc039_1450"
    INDEX 01 00:33:56
  TRACK 21 AUDIO
    TITLE "0:"
    INDEX 01 00:37:46
  TRACK 22 AUDIO
    TITLE "2:cjc039_1451"
    INDEX 01 00:39:17
  TRACK 23 AUDIO
    TITLE "0:"
    INDEX 01 00:40:60
  TRACK 24 AUDIO
    TITLE "3:cjc039_1452"
    INDEX 01 00:41:36
  TRACK 25 AUDIO
    TITLE "0:"
    INDEX 01 00:45:61
  TRACK 26 AUDIO
    TITLE "2:cjc039_1453"
    INDEX 01 00:47:40
  TRACK 27 AUDIO
    TITLE "0:"
    INDEX 01 00:48:34
  TRACK 28 AUDIO
    TITLE "3:cjc039_1454"
    INDEX 01 00:49:16
  TRACK 29 AUDIO
    TITLE "0:"
    INDEX 01 00:53:04
  TRACK 30 AUDIO
    TITLE "2:cjc039_1455"
    INDEX 01 00:54:56
  TRACK 31 AUDIO
    TITLE "0:"
    INDEX 01 00:56:29
  TRACK 32 AUDIO
    TITLE "3:cjc039_1456"
    INDEX 01 00:57:03
  TRACK 33 AUDIO
    TITLE "0:"
    INDEX 01 01:01:44
  TRACK 34 AUDIO
    TITLE "2:cjc039_1457"
    INDEX 01 01:03:24
  TRACK 35 AUDIO
    TITLE "0:"
    INDEX 01 01:04:21
  TRACK 36 AUDIO
    TITLE "3:cjc039_1458"
    INDEX 01 01:04:70
  TRACK 37 AUDIO
    TITLE "0:"
    INDEX 01 01:08:58
  TRACK 38 AUDIO
    TITLE "2:cjc039_1459"
    INDEX 01 01:10:37
  TRACK 39 AUDIO
    TITLE "0:"
    INDEX 01 01:11:51
  TRACK 40 AUDIO
    TITLE "3:cjc039_1460"
    INDEX 01 01:12:28
  TRACK 41 AUDIO
    TITLE "0:"
    INDEX 01 01:16:40
  TRACK 42 AUDIO
    TITLE "2:cjc039_1461"
    INDEX 01 01:18:19
  TRACK 43 AUDIO
    TITLE "0:"
    INDEX 01 01:19:44
  TRACK 44 AUDIO
    TITLE "3:cjc039_1462"
    INDEX 01 01:20:20
  TRACK 45 AUDIO
    TITLE "0:"
    INDEX 01 01:24:28
  TRACK 46 AUDIO
    TITLE "2:cjc039_1463"
    INDEX 01 01:26:07
  TRACK 47 AUDIO
    TITLE "0:"
    INDEX 01 01:27:24
  TRACK 48 AUDIO
    TITLE "3:cjc039_1464"
    INDEX 01 01:28:06
  TRACK 49 AUDIO
    TITLE "0:"
    INDEX 01 01:32:39
  TRACK 50 AUDIO
    TITLE "2:cjc039_1465"
    INDEX 01 01:34:18
  TRACK 51 AUDIO
    TITLE "0:"
    INDEX 01 01:35:12
  TRACK 52 AUDIO
    TITLE "3:cjc039_1466"
    INDEX 01 01:35:71
  TRACK 53 AUDIO
    TITLE "0:"
    INDEX 01 01:39:55
  TRACK 54 AUDIO
    TITLE "2:cjc039_1467"
    INDEX 01 01:41:26
  TRACK 55 AUDIO
    TITLE "0:"
    INDEX 01 01:42:51
  TRACK 56 AUDIO
    TITLE "3:cjc039_1468"
    INDEX 01 01:43:31
  TRACK 57 AUDIO
    TITLE "0:"
    INDEX 01 01:48:01
  TRACK 58 AUDIO
    TITLE "2:cjc039_1469"
    INDEX 01 01:49:51
  TRACK 59 AUDIO
    TITLE "0:"
    INDEX 01 01:50:51
  TRACK 60 AUDIO
    TITLE "3:cjc039_1470"
    INDEX 01 01:51:30
  TRACK 61 AUDIO
    TITLE "0:"
    INDEX 01 01:55:18
  TRACK 62 AUDIO
    TITLE "2:cjc039_1471"
    INDEX 01 01:56:69
  TRACK 63 AUDIO
    TITLE "0:"
    INDEX 01 01:58:27
  TRACK 64 AUDIO
    TITLE "3:cjc039_1472"
    INDEX 01 01:59:04
  TRACK 65 AUDIO
    TITLE "0:"
    INDEX 01 02:02:38
  TRACK 66 AUDIO
    TITLE "2:cjc039_1473"
    INDEX 01 02:04:12
  TRACK 67 AUDIO
    TITLE "0:"
    INDEX 01 02:05:15
  TRACK 68 AUDIO
    TITLE "3:cjc039_1474"
    INDEX 01 02:05:68
  TRACK 69 AUDIO
    TITLE "0:"
    INDEX 01 02:09:01
  TRACK 70 AUDIO
    TITLE "2:cjc039_1475"
    INDEX 01 02:10:45
  TRACK 71 AUDIO
    TITLE "0:"
    INDEX 01 02:11:72
  TRACK 72 AUDIO
    TITLE "3:cjc039_1476"
    INDEX 01 02:12:48
  TRACK 73 AUDIO
    TITLE "0:"
    INDEX 01 02:17:14
  TRACK 74 AUDIO
    TITLE "2:cjc039_1477"
    INDEX 01 02:18:61
  TRACK 75 AUDIO
    TITLE "0:"
    INDEX 01 02:20:01
  TRACK 76 AUDIO
    TITLE "3:cjc039_1478"
    INDEX 01 02:20:56
  TRACK 77 AUDIO
    TITLE "0:"
    INDEX 01 02:25:12
  TRACK 78 AUDIO
    TITLE "2:cjc039_1479"
    INDEX 01 02:26:66
  TRACK 79 AUDIO
    TITLE "0:"
    INDEX 01 02:28:24
  TRACK 80 AUDIO
    TITLE "3:cjc039_1480"
    INDEX 01 02:29:04
  TRACK 81 AUDIO
    TITLE "0:"
    INDEX 01 02:33:17
